<svg width="208" height="41" viewBox="0 0 208 41" fill="none" xmlns="http://www.w3.org/2000/svg">
<path fill-rule="evenodd" clip-rule="evenodd" d="M13.935 37.1229C13.8021 37.1217 13.6713 37.09 13.5526 37.0304C13.4338 36.9708 13.3303 36.8847 13.25 36.7789C13.0219 36.4756 12.8678 36.1233 12.8 35.7499C12.6916 35.2746 12.6081 34.7939 12.55 34.3099C12.4809 33.6866 12.4455 33.06 12.444 32.4329C12.4234 31.0549 12.4281 29.6767 12.458 28.2989C12.476 27.4529 12.484 26.7929 12.484 26.3169V10.5649C12.484 9.78889 12.489 9.19889 12.498 8.79389C12.507 8.38889 12.538 7.93089 12.589 7.41989C12.619 7.03989 12.685 6.66389 12.788 6.29689C12.888 6.01389 13.021 5.74389 13.183 5.49089C13.333 5.22589 13.551 5.00689 13.816 4.85689C14.124 4.70289 14.441 4.56689 14.765 4.44689C15.1825 4.29171 15.6152 4.18109 16.056 4.11689C16.6303 4.03305 17.2064 3.96237 17.784 3.90489V2.44989L17.334 1.99989H1.41199L0.98999 2.44989V3.69189C3.66199 3.85089 5.15599 4.60889 5.47199 5.96489C5.65599 7.10989 5.74399 8.26789 5.73599 9.42689V33.5539C5.7802 34.8071 5.72704 36.0619 5.57699 37.3069C5.50399 37.5009 5.39699 37.6789 5.26099 37.8349C5.05736 38.0784 4.84211 38.3121 4.61599 38.5349C4.43684 38.708 4.26534 38.8888 4.10199 39.0769V40.0019C17.689 40.0019 26.099 40.0899 29.332 40.2669L30.467 36.4349L29.755 35.9319C24.505 36.5929 19.225 36.9899 13.936 37.1219L13.935 37.1229ZM39.191 26.0769C39.1394 26.0913 39.0865 26.1001 39.033 26.1029C38.77 26.1029 38.638 26.0069 38.638 25.8129C38.639 24.9369 38.705 24.0619 38.836 23.1959C38.984 22.2519 39.231 21.3259 39.574 20.4349C39.9045 19.5315 40.3578 18.6778 40.921 17.8979C41.5179 17.1045 42.2931 16.4626 43.1839 16.0242C44.0747 15.5857 45.0562 15.363 46.049 15.3739C46.7654 15.3341 47.4799 15.4814 48.1223 15.8012C48.7647 16.121 49.3128 16.6023 49.713 17.1979C50.5441 18.4297 50.977 19.8871 50.953 21.3729C50.9495 21.6453 50.8629 21.9101 50.705 22.132C50.547 22.3539 50.3252 22.5224 50.069 22.6149C48.6253 23.1967 47.1511 23.6997 45.653 24.1219C43.5459 24.7419 41.4458 25.3853 39.353 26.0519C39.2982 26.0542 39.2439 26.0626 39.191 26.0769ZM54.851 34.3219C51.686 36.2419 48.953 37.2019 46.653 37.2019C45.0948 37.2357 43.5649 36.7831 42.276 35.9069C41.077 35.1023 40.1236 33.9821 39.521 32.6699C38.9277 31.354 38.6264 29.9253 38.638 28.4819C50.133 24.9059 55.933 23.1169 56.038 23.1169C56.4945 23.0235 56.9024 22.7696 57.1877 22.4011C57.473 22.0327 57.6168 21.5742 57.593 21.1089C57.6243 19.8116 57.3201 18.5282 56.71 17.3829C56.1528 16.3585 55.3282 15.5045 54.324 14.9119C53.3108 14.3172 52.2128 13.8805 51.068 13.6169C49.8262 13.3357 48.5562 13.1982 47.283 13.2069C44.999 13.1715 42.7339 13.6267 40.641 14.5419C38.7956 15.339 37.1651 16.5617 35.883 18.1099C34.6742 19.6069 33.7413 21.3071 33.128 23.1309C32.492 25.0075 32.171 26.9764 32.178 28.9579C32.178 33.0279 33.278 36.0759 35.474 38.1019C37.46 39.9519 40.264 40.8759 43.884 40.8759C45.9596 40.8546 48.0026 40.3575 49.856 39.4229C52.0879 38.3113 54.2259 37.0204 56.249 35.5629L55.672 34.5349L54.851 34.3219ZM90.36 6.45689C89.6536 4.61168 88.2663 3.10772 86.484 2.25489C84.2762 1.32604 81.8914 0.893188 79.498 0.986894C77.7514 0.976875 76.0106 1.18993 74.318 1.62089C72.7435 2.0218 71.2404 2.66372 69.862 3.52389C68.5118 4.37504 67.4077 5.56436 66.659 6.97389C65.8463 8.51566 65.4379 10.2384 65.472 11.9809C65.4711 13.2282 65.7742 14.457 66.355 15.5609C66.9098 16.6534 67.6606 17.6347 68.57 18.4559C69.548 19.3185 70.5874 20.1089 71.68 20.8209C72.7766 21.5516 73.9123 22.2219 75.082 22.8289C76.1816 23.3941 77.2631 23.9937 78.325 24.6269C79.205 25.1249 80.031 25.7139 80.79 26.3839C82.74 28.1989 83.716 29.9249 83.716 31.5639C83.7124 32.4345 83.5304 33.2951 83.1813 34.0927C82.8321 34.8902 82.3232 35.6077 81.686 36.2009C81.0534 36.852 80.2946 37.3672 79.456 37.7149C78.6174 38.0626 77.7167 38.2354 76.809 38.2229C75.7476 38.2534 74.6933 38.0406 73.7269 37.6009C72.7604 37.1611 71.9073 36.5061 71.233 35.6859C69.8337 34.0835 69.0696 32.0242 69.085 29.8969L68.058 29.5269L62.812 35.4199C64.0109 37.1551 65.6364 38.5522 67.532 39.4769C69.4594 40.4225 71.5802 40.9069 73.727 40.8919C75.6858 40.882 77.6321 40.5787 79.501 39.9919C81.3805 39.4261 83.1727 38.6033 84.827 37.5469C86.3996 36.5426 87.7351 35.2085 88.741 33.6369C89.7269 32.1425 90.2539 30.3922 90.257 28.6019C90.2649 27.6411 90.0954 26.6871 89.757 25.7879C89.4439 24.9528 89.0085 24.1689 88.465 23.4619C87.8251 22.677 87.0848 21.9796 86.263 21.3879C85.3651 20.7107 84.4274 20.088 83.455 19.5229C82.2911 18.8597 81.1135 18.2209 79.923 17.6069C79.0929 17.2045 78.2752 16.777 77.471 16.3249C76.7105 15.8804 75.9704 15.402 75.253 14.8909C74.5175 14.3867 73.8453 13.7958 73.251 13.1309C72.7287 12.5104 72.302 11.8154 71.985 11.0689C71.6331 10.265 71.4536 9.39638 71.458 8.51889C71.4418 7.80124 71.5697 7.08763 71.8342 6.42031C72.0988 5.75299 72.4945 5.14553 72.998 4.63389C73.5301 4.10204 74.1669 3.68653 74.868 3.41369C75.5692 3.14085 76.3193 3.01662 77.071 3.04889C78.0021 3.00868 78.9305 3.17494 79.7897 3.53576C80.649 3.89657 81.4178 4.44301 82.041 5.13589C83.2897 6.5492 84.0762 8.31068 84.295 10.1839L85.218 10.4739L90.36 6.45689ZM115.998 16.5919C115.527 15.7671 114.845 15.0829 114.021 14.6099C113.206 14.1441 112.326 13.8014 111.411 13.5929C110.429 13.3751 109.425 13.2687 108.419 13.2759C106.5 13.2489 104.592 13.5759 102.79 14.2409C101.244 14.8022 99.8278 15.6695 98.625 16.7909C97.5072 17.8738 96.5802 19.1375 95.883 20.5289C95.1663 21.9286 94.6387 23.4173 94.314 24.9559C93.9937 26.5121 93.8348 28.0971 93.84 29.6859C93.834 31.0359 94.025 32.3799 94.406 33.6739C94.776 34.9269 95.351 36.1099 96.106 37.1759C96.9021 38.2754 97.9699 39.1496 99.205 39.7129C100.623 40.3609 102.168 40.6819 103.726 40.6509C108.665 40.6509 113.305 38.4749 117.646 34.1239L117.119 33.3569L116.46 33.1989C113.244 35.6829 110.273 36.9249 107.549 36.9249C106.529 36.9413 105.521 36.71 104.61 36.2509C103.784 35.841 103.066 35.2442 102.511 34.5079C101.96 33.751 101.512 32.9245 101.179 32.0499C100.833 31.1766 100.581 30.2687 100.428 29.3419C100.288 28.4679 100.218 27.5839 100.217 26.6989C100.223 25.5739 100.32 24.4519 100.507 23.3429C100.714 22.1079 101.023 20.8929 101.43 19.7089C101.8 18.5518 102.442 17.5003 103.302 16.6429C103.681 16.2592 104.132 15.9551 104.63 15.7487C105.129 15.5423 105.663 15.4376 106.202 15.4409C106.922 15.4012 107.64 15.5632 108.273 15.9088C108.906 16.2543 109.431 16.7697 109.787 17.3969C110.602 18.8656 111.003 20.5281 110.947 22.2069L111.87 22.5769L116.853 19.6179C116.812 18.5557 116.519 17.5185 115.998 16.5919ZM125.661 24.4539C125.795 23.4159 126.029 22.3939 126.36 21.4019C126.663 20.4369 127.093 19.5179 127.638 18.6669C128.162 17.8786 128.861 17.2227 129.682 16.7509C130.567 16.2401 131.574 15.9798 132.595 15.9979C133.703 15.9697 134.796 16.2583 135.745 16.8299C136.627 17.3792 137.336 18.1673 137.788 19.1029C138.265 20.0699 138.61 21.0959 138.815 22.1549C139.032 23.2949 139.139 24.4549 139.132 25.6169C139.132 26.6739 139.123 27.5549 139.105 28.2589C139.077 29.107 139.016 29.9536 138.921 30.7969C138.843 31.6269 138.698 32.4479 138.486 33.2539C138.279 33.9639 138.01 34.6539 137.682 35.3159C137.38 35.9712 136.944 36.5561 136.403 37.0329C135.844 37.4894 135.211 37.8469 134.531 38.0899C133.707 38.3848 132.836 38.5281 131.961 38.5129C130.997 38.5247 130.053 38.2383 129.258 37.6929C128.483 37.1734 127.838 36.4818 127.374 35.6719C126.887 34.8003 126.506 33.8733 126.24 32.9109C125.96 31.9638 125.757 30.9957 125.633 30.0159C125.531 29.1697 125.478 28.3182 125.475 27.4659C125.474 26.459 125.537 25.4531 125.661 24.4539ZM122.392 38.1169C124.307 39.8609 127.348 40.7329 131.514 40.7329C133.054 40.7429 134.59 40.5659 136.088 40.2039C137.497 39.8536 138.84 39.2782 140.066 38.4999C141.298 37.7226 142.375 36.7233 143.243 35.5529C144.192 34.2258 144.897 32.7402 145.326 31.1659C145.858 29.2567 146.115 27.2816 146.091 25.2999C146.142 23.7043 145.846 22.1167 145.222 20.6473C144.598 19.1778 143.662 17.8615 142.479 16.7899C140.281 14.8179 137.091 13.8309 132.909 13.8309C128.726 13.8309 125.281 15.1259 122.574 17.7159C121.245 18.972 120.196 20.4946 119.497 22.1842C118.797 23.8737 118.462 25.692 118.514 27.5199C118.514 32.2419 119.805 35.7739 122.389 38.1169H122.392ZM163.65 17.1869C165.056 17.1869 166.058 17.4689 166.656 18.0329C167.213 18.7129 167.565 19.5389 167.67 20.4129C167.891 21.4429 168.028 22.4909 168.079 23.5439C168.114 24.4689 168.132 25.6629 168.132 27.1249C168.131 29.0233 168.118 30.9217 168.093 32.8199C168.084 33.3919 168.088 34.0659 168.105 34.8419C168.11 35.4199 168.145 35.9979 168.211 36.5719C168.264 36.9519 168.334 37.3659 168.422 37.8139C168.483 38.1899 168.608 38.5509 168.791 38.8839C168.949 39.1489 169.143 39.3899 169.369 39.5989C170.16 40.3166 171.201 40.6957 172.268 40.6549C173.587 40.6549 175.098 39.9849 176.803 38.6469C178.226 37.4635 179.581 36.2015 180.863 34.8669L180.257 33.9669H179.624C178.593 34.7941 177.332 35.2833 176.013 35.3679C175.734 35.3839 175.454 35.343 175.191 35.2476C174.928 35.1522 174.687 35.0043 174.483 34.8129C174.301 34.669 174.145 34.4952 174.021 34.2989C173.876 33.9532 173.783 33.5879 173.745 33.2149C173.644 32.4573 173.6 31.6931 173.613 30.9289C173.613 30.3479 173.644 29.4089 173.705 28.1149C173.754 27.1949 173.785 26.2741 173.798 25.3529V23.7669C173.815 22.0579 173.811 20.8739 173.785 20.2119C173.732 19.3087 173.631 18.4091 173.481 17.5169C173.415 16.6757 173.134 15.8656 172.664 15.1649C172.2 14.6614 171.645 14.2494 171.029 13.9499C170.192 13.545 169.269 13.3497 168.34 13.3809C165.247 13.3809 161.661 14.6499 157.584 17.1869L156.951 16.9489C156.917 15.9772 156.601 15.0363 156.042 14.2409C155.523 13.5609 154.631 13.2229 153.366 13.2229C152.608 13.2324 151.856 13.3617 151.138 13.6059C150.303 13.8859 149.506 14.2679 148.764 14.7419C147.964 15.2449 147.27 15.7119 146.681 16.1429C146.092 16.5739 145.411 17.0979 144.638 17.7149L145.613 19.0099C145.792 18.8939 145.973 18.7796 146.154 18.6669C146.461 18.4729 146.729 18.3149 146.958 18.1909C147.186 18.0679 147.459 17.9229 147.775 17.7549C148.058 17.6009 148.354 17.4719 148.659 17.3689C148.892 17.2889 149.136 17.2439 149.383 17.2369C149.688 17.2299 149.989 17.3069 150.253 17.4619C150.521 17.6389 150.723 17.8989 150.831 18.2019C150.963 18.5219 151.077 18.8469 151.173 19.1789C151.281 19.6259 151.343 20.0819 151.358 20.5409C151.394 21.1409 151.415 21.6249 151.422 21.9939C151.43 22.3629 151.434 22.9179 151.435 23.6589V24.1089C151.435 25.8349 151.303 31.1199 151.04 39.9639L151.699 40.3339L157.631 38.6159C157.455 37.8589 157.323 35.4719 157.235 31.4559C157.148 27.5275 157.105 23.5983 157.107 19.6689C160.165 18.0129 162.344 17.1849 163.645 17.1849L163.65 17.1869ZM189.223 26.1969C189.172 26.2122 189.119 26.2216 189.065 26.2249C188.802 26.2249 188.67 26.1279 188.669 25.9349C188.67 25.0579 188.736 24.1839 188.868 23.3179C189.016 22.3739 189.263 21.4479 189.605 20.5559C189.936 19.6529 190.388 18.7989 190.95 18.0189C191.547 17.2253 192.322 16.5832 193.213 16.1447C194.104 15.7063 195.085 15.4836 196.078 15.4949C196.794 15.455 197.509 15.6022 198.151 15.922C198.794 16.2418 199.342 16.7232 199.742 17.3189C200.573 18.5506 201.006 20.0081 200.981 21.4939C200.977 21.766 200.891 22.0306 200.733 22.2524C200.575 22.4742 200.354 22.6428 200.098 22.7359C198.655 23.3174 197.181 23.8204 195.683 24.2429C193.576 24.8628 191.475 25.5062 189.382 26.1729C189.329 26.1758 189.276 26.1842 189.224 26.1979L189.223 26.1969ZM204.883 34.4429C201.718 36.3639 198.985 37.3239 196.684 37.3229C195.126 37.3565 193.596 36.9042 192.307 36.0289C191.108 35.224 190.155 34.1039 189.553 32.7919C188.959 31.4755 188.658 30.046 188.669 28.6019C200.164 25.0269 205.964 23.2389 206.07 23.2389C206.526 23.1451 206.934 22.8909 207.22 22.5224C207.505 22.1538 207.649 21.6953 207.625 21.2299C207.656 19.9326 207.352 18.6492 206.742 17.5039C206.185 16.4795 205.36 15.6256 204.356 15.0329C203.343 14.4384 202.245 14.0018 201.1 13.7379C199.858 13.4566 198.588 13.3191 197.314 13.3279C195.031 13.2927 192.766 13.7479 190.674 14.6629C188.829 15.4599 187.198 16.6826 185.916 18.2309C184.707 19.7277 183.774 21.4279 183.161 23.2519C182.525 25.1284 182.204 27.0975 182.212 29.0789C182.212 33.1489 183.31 36.1959 185.507 38.2229C187.493 40.0729 190.296 40.9969 193.917 40.9969C195.993 40.9755 198.036 40.4785 199.889 39.5439C202.121 38.4321 204.259 37.1415 206.282 35.6849L205.705 34.6559L204.883 34.4429Z" fill="#9C9C9C"/>
</svg>
