<svg width="200" height="49" viewBox="0 0 200 49" fill="none" xmlns="http://www.w3.org/2000/svg">
<path d="M54.381 44.014C51.061 44.014 48.516 43.446 46.745 42.31C45.005 41.142 44.136 39.437 44.136 37.196C44.136 36.06 44.516 35.128 45.274 34.402C46.065 33.645 47.077 33.266 48.31 33.266C49.037 33.298 49.59 33.486 49.97 33.834C50.35 34.15 50.54 34.45 50.54 34.734C50.54 34.765 50.381 34.876 50.065 35.065C49.749 35.255 49.465 35.539 49.211 35.917C48.958 36.297 48.831 36.817 48.831 37.48C48.831 38.964 49.275 40.116 50.16 40.937C51.077 41.726 52.484 42.12 54.381 42.12C55.678 42.12 56.816 41.868 57.797 41.363C58.777 40.858 59.52 40.195 60.026 39.374C60.563 38.522 60.832 37.638 60.832 36.722C60.832 35.586 60.5 34.608 59.836 33.787C59.191 32.9554 58.3845 32.2628 57.465 31.751C56.515 31.183 55.219 30.535 53.575 29.809C51.678 28.957 50.145 28.184 48.975 27.489C47.7993 26.7901 46.7812 25.8551 45.985 24.743C45.164 23.575 44.753 22.139 44.753 20.434C44.753 17.688 45.685 15.636 47.551 14.279C49.449 12.921 51.931 12.243 54.998 12.243C57.401 12.243 59.488 12.748 61.259 13.758C63.062 14.768 63.963 16.252 63.963 18.208C63.963 19.345 63.567 20.292 62.777 21.05C62.018 21.776 61.022 22.139 59.789 22.139C59.061 22.107 58.508 21.933 58.129 21.618C57.749 21.271 57.559 20.955 57.559 20.671C57.559 20.639 57.765 20.529 58.176 20.339C58.619 20.15 58.998 19.866 59.314 19.487C59.662 19.108 59.836 18.587 59.836 17.925C59.836 16.757 59.378 15.841 58.461 15.178C57.575 14.515 56.437 14.184 55.045 14.184C53.117 14.184 51.646 14.642 50.635 15.557C49.654 16.441 49.164 17.546 49.164 18.872C49.164 19.976 49.464 20.908 50.065 21.665C50.665 22.391 51.63 23.117 52.958 23.843C54.1096 24.4485 55.2801 25.0171 56.468 25.548C58.492 26.463 60.089 27.3 61.259 28.058C62.4636 28.8187 63.4842 29.8376 64.247 31.041C65.069 32.271 65.481 33.803 65.481 35.633C65.481 37.212 64.975 38.648 63.963 39.943C62.983 41.205 61.638 42.199 59.931 42.925C58.255 43.651 56.405 44.014 54.381 44.014ZM78.394 43.636C76.244 43.636 74.536 42.988 73.271 41.694C72.006 40.4 71.374 38.695 71.374 36.58V27.82C71.374 27 71.342 26.4 71.279 26.021C71.248 25.643 71.058 25.311 70.709 25.027C70.362 24.743 69.777 24.601 68.955 24.601C68.575 24.601 68.291 24.554 68.101 24.459C67.911 24.333 67.817 24.064 67.817 23.654C67.817 23.464 67.88 23.291 68.007 23.134C68.133 22.944 68.323 22.834 68.576 22.802C70.568 22.517 72.276 22.107 73.698 21.57C74.141 21.413 74.504 21.318 74.789 21.286H74.931C75.437 21.286 75.691 21.586 75.691 22.186V36.533C75.691 37.985 76.149 39.106 77.066 39.895C77.9549 40.6424 79.0827 41.0455 80.244 41.031C81.73 41.031 82.994 40.668 84.038 39.942C85.082 39.216 85.778 38.49 86.125 37.764V27.821C86.125 27 86.094 26.401 86.031 26.021C85.999 25.643 85.809 25.311 85.461 25.027C85.113 24.743 84.528 24.601 83.706 24.601C83.326 24.601 83.042 24.554 82.853 24.459C82.663 24.333 82.568 24.064 82.568 23.654C82.568 23.464 82.631 23.291 82.758 23.134C82.884 22.944 83.074 22.834 83.327 22.802C85.319 22.517 87.027 22.107 88.45 21.57C88.892 21.413 89.256 21.318 89.54 21.286H89.683C90.189 21.286 90.442 21.586 90.442 22.186V38.57C90.442 40.433 91.691 41.364 94.189 41.364C94.726 41.364 94.995 41.664 94.995 42.264C94.995 42.705 94.726 42.974 94.189 43.068L86.552 43.589C86.331 43.589 86.204 43.51 86.172 43.353C86.142 43.226 86.125 42.99 86.125 42.643V39.99H86.031C85.305 40.6719 84.5614 41.3348 83.801 41.978C83.232 42.42 82.489 42.799 81.571 43.115C80.686 43.462 79.627 43.635 78.394 43.635V43.636ZM97.59 43.21C97.4794 43.2095 97.3705 43.1835 97.2717 43.1341C97.1728 43.0847 97.0867 43.0131 97.02 42.925C96.894 42.736 96.83 42.515 96.83 42.263C96.862 41.853 96.957 41.615 97.115 41.553C97.274 41.458 97.558 41.41 97.969 41.41C98.791 41.41 99.376 41.268 99.724 40.984C100.072 40.7 100.262 40.368 100.293 39.99C100.357 39.61 100.388 39.011 100.388 38.19V27.347C100.388 26.527 100.357 25.927 100.293 25.547C100.262 25.169 100.072 24.837 99.724 24.554C99.376 24.27 98.791 24.127 97.969 24.127C97.589 24.127 97.305 24.08 97.116 23.985C96.926 23.859 96.831 23.591 96.831 23.18C96.831 22.991 96.894 22.817 97.021 22.66C97.147 22.47 97.337 22.36 97.59 22.328C99.645 22.012 101.337 21.602 102.665 21.097C103.203 20.939 103.566 20.844 103.756 20.813H103.898C104.404 20.813 104.657 21.113 104.657 21.713V24.648H104.799C105.906 23.543 107.029 22.675 108.167 22.044C109.306 21.381 110.333 21.05 111.25 21.05C112.294 21.05 113.116 21.444 113.717 22.233C114.349 22.991 114.665 23.875 114.665 24.885C114.665 25.769 114.397 26.558 113.859 27.252C113.321 27.947 112.578 28.294 111.63 28.294C111.217 28.3012 110.809 28.2035 110.444 28.01C110.128 27.82 109.954 27.663 109.922 27.537C109.954 27.474 110.112 27.284 110.396 26.968C110.681 26.621 110.823 26.227 110.823 25.785C110.823 25.216 110.665 24.759 110.349 24.412C110.064 24.064 109.669 23.891 109.163 23.891C108.626 23.891 107.946 24.159 107.124 24.696C106.301 25.201 105.495 25.848 104.705 26.637V38.19C104.705 39.011 104.736 39.61 104.799 39.99C104.863 40.368 105.068 40.7 105.416 40.984C105.764 41.268 106.349 41.41 107.171 41.41H107.456C107.709 41.41 107.898 41.458 108.025 41.552C108.151 41.647 108.23 41.884 108.262 42.262C108.262 42.515 108.199 42.736 108.072 42.925C107.946 43.115 107.756 43.21 107.503 43.21C105.844 43.1199 104.184 43.0722 102.523 43.067C101.1 43.067 99.456 43.116 97.59 43.21ZM171.257 43.636C169.107 43.636 167.194 43.13 165.518 42.12C163.842 41.079 162.53 39.721 161.581 38.048C160.677 36.3927 160.204 34.5362 160.206 32.65C160.206 30.283 160.759 28.231 161.866 26.495C162.973 24.727 164.38 23.385 166.087 22.47C167.795 21.523 169.518 21.05 171.257 21.05C173.408 21.05 175.321 21.57 176.997 22.612C178.641 23.5887 179.986 24.997 180.886 26.684C181.823 28.3112 182.313 30.1566 182.309 32.034C182.309 34.402 181.74 36.47 180.602 38.238C179.495 39.974 178.088 41.315 176.38 42.262C174.673 43.178 172.965 43.636 171.257 43.636ZM171.257 41.884C173.408 41.884 174.973 40.968 175.953 39.137C176.965 37.307 177.471 34.939 177.471 32.035C177.471 29.32 176.949 27.111 175.906 25.405C174.894 23.67 173.344 22.802 171.257 22.802C169.076 22.802 167.495 23.702 166.514 25.501C165.534 27.3 165.044 29.651 165.044 32.556C165.044 35.27 165.55 37.512 166.562 39.279C167.574 41.016 169.139 41.884 171.257 41.884ZM194.261 43.872C192.711 43.872 191.383 43.304 190.276 42.168C189.17 41.031 188.616 39.406 188.616 37.291V23.37L185.865 23.465C185.773 23.4658 185.682 23.4447 185.599 23.4035C185.517 23.3623 185.446 23.3021 185.391 23.228C185.267 23.0467 185.2 22.8319 185.201 22.612C185.201 22.328 185.249 22.092 185.343 21.902C185.47 21.681 185.644 21.555 185.865 21.523C186.972 21.303 187.826 20.955 188.427 20.482C189.059 19.976 189.518 19.44 189.802 18.872C190.087 18.272 190.435 17.372 190.846 16.172C191.004 15.762 191.352 15.557 191.889 15.557C192.11 15.557 192.332 15.62 192.553 15.747C192.774 15.841 192.885 15.999 192.885 16.22L192.553 21.618L198.103 21.286H198.198C198.609 21.286 198.814 21.586 198.814 22.186C198.814 22.533 198.751 22.865 198.624 23.18C198.53 23.465 198.403 23.607 198.245 23.607L192.933 23.465V37.859C192.933 38.901 193.138 39.769 193.549 40.463C193.992 41.158 194.703 41.505 195.684 41.505C196.664 41.505 197.534 41.331 198.292 40.984C198.704 40.826 198.956 40.747 199.051 40.747C199.273 40.747 199.447 40.842 199.573 41.031C199.7 41.189 199.826 41.411 199.953 41.694C199.987 41.7684 200.003 41.8494 200 41.931C200 42.057 199.905 42.199 199.715 42.357C198.798 42.957 197.929 43.352 197.107 43.541C196.316 43.761 195.367 43.872 194.261 43.872ZM117.597 42.925C117.723 43.115 117.913 43.209 118.166 43.209C119.809 43.1188 121.454 43.0715 123.099 43.067C125.218 43.067 127.194 43.115 129.028 43.209C129.132 43.2114 129.235 43.1864 129.327 43.1366C129.418 43.0867 129.495 43.0138 129.55 42.925C129.676 42.735 129.739 42.515 129.739 42.262C129.708 41.884 129.629 41.647 129.502 41.552C129.407 41.458 129.218 41.41 128.933 41.41H128.648C127.605 41.41 126.862 41.331 126.419 41.173C125.976 41.016 125.676 40.731 125.518 40.321C125.36 39.879 125.281 39.169 125.281 38.191V23.463H130.309C130.419 23.4625 130.528 23.4366 130.627 23.3873C130.725 23.3381 130.811 23.2668 130.878 23.179C131.036 22.99 131.115 22.769 131.115 22.516C131.083 22.138 130.988 21.901 130.83 21.806C130.704 21.68 130.498 21.616 130.214 21.616H125.281V18.776C125.281 17.261 125.344 15.935 125.47 14.798C125.588 13.6565 125.961 12.5562 126.561 11.578C127.162 10.6 128.095 10.111 129.36 10.111C129.505 10.111 129.646 10.119 129.782 10.136C129.764 9.60553 129.799 9.0746 129.886 8.551C129.821 8.54922 129.757 8.54822 129.692 8.548C126.909 8.611 124.743 9.668 123.194 11.721C121.676 13.741 120.917 16.377 120.917 19.628V21.617H118.071C117.66 21.617 117.375 21.664 117.217 21.759C117.059 21.822 116.964 22.075 116.933 22.516C116.933 22.769 116.996 22.99 117.122 23.179C117.281 23.369 117.486 23.464 117.739 23.464H120.917V38.19C120.917 39.043 120.885 39.658 120.822 40.037C120.791 40.384 120.601 40.7 120.253 40.984C119.905 41.268 119.32 41.41 118.498 41.41C118.087 41.41 117.802 41.458 117.644 41.552C117.518 41.615 117.439 41.852 117.407 42.262C117.407 42.515 117.47 42.736 117.597 42.925Z" fill="#9C9C9C"/>
<path fill-rule="evenodd" clip-rule="evenodd" d="M142.952 9.865C142.951 10.5564 142.814 11.2409 142.549 11.8794C142.284 12.518 141.896 13.098 141.406 13.5865C140.917 14.0749 140.336 14.4622 139.697 14.7261C139.058 14.9901 138.373 15.1257 137.682 15.125C136.286 15.1261 134.946 14.5725 133.958 13.5862C132.97 12.5998 132.414 11.2613 132.412 9.865C132.412 9.17346 132.549 8.48879 132.814 7.85009C133.079 7.21139 133.468 6.63117 133.957 6.14255C134.447 5.65392 135.027 5.26647 135.666 5.00232C136.306 4.73816 136.99 4.60247 137.682 4.603C138.374 4.60234 139.058 4.73794 139.698 5.00205C140.337 5.26616 140.918 5.6536 141.407 6.14225C141.896 6.6309 142.285 7.21118 142.55 7.84994C142.815 8.4887 142.952 9.17342 142.952 9.865ZM137.682 12.495C138.028 12.4954 138.37 12.4277 138.69 12.2957C139.009 12.1637 139.3 11.9701 139.544 11.7259C139.789 11.4816 139.983 11.1916 140.116 10.8723C140.248 10.553 140.317 10.2107 140.317 9.865C140.317 9.51919 140.249 9.1768 140.116 8.85739C139.984 8.53798 139.789 8.24782 139.545 8.00348C139.3 7.75914 139.009 7.56542 138.69 7.43339C138.37 7.30136 138.028 7.2336 137.682 7.234C136.984 7.23373 136.314 7.51058 135.82 8.00371C135.326 8.49685 135.048 9.16594 135.047 9.864C135.048 10.5622 135.326 11.2316 135.82 11.7249C136.314 12.2183 136.984 12.4953 137.682 12.495ZM135.372 17.414V42.784C135.372 43.067 135.452 43.288 135.61 43.446C135.768 43.636 135.989 43.73 136.274 43.73C136.558 43.73 136.795 43.604 136.985 43.352C137.175 43.131 137.349 42.799 137.507 42.357C137.665 41.915 137.807 41.568 137.934 41.315H138.171C140.226 42.862 142.661 43.635 145.475 43.635C147.373 43.635 149.159 43.13 150.835 42.12C152.511 41.11 153.839 39.737 154.82 38C155.831 36.233 156.337 34.292 156.337 32.177C156.337 30.03 155.895 28.121 155.009 26.447C154.156 24.743 152.97 23.417 151.452 22.47C149.934 21.523 148.242 21.05 146.377 21.05C145.238 21.05 144.084 21.286 142.914 21.76C141.776 22.202 140.748 22.88 139.831 23.796H139.689V17.5C138.269 17.8685 136.776 17.8388 135.372 17.414ZM149.697 39.421C148.527 41.158 146.977 42.026 145.049 42.026C144.037 42.026 143.136 41.805 142.345 41.363C141.586 40.921 140.969 40.4 140.495 39.8C140.052 39.169 139.784 38.6 139.689 38.096V25.596C141.048 24.143 142.724 23.417 144.717 23.417C146.962 23.417 148.653 24.301 149.792 26.069C150.93 27.805 151.499 29.904 151.499 32.366C151.499 35.302 150.899 37.654 149.697 39.421ZM12.7 0.366998C13.0354 0.127971 13.4371 -0.000488281 13.849 -0.000488281C14.2609 -0.000488281 14.6625 0.127971 14.998 0.366998C23.558 6.471 27.438 13.788 27.683 24.287C27.796 29.3 27.313 33.89 25.842 37.855C24.332 41.823 21.649 45.488 17.699 48.584C17.453 48.7751 17.1655 48.9055 16.8596 48.9646C16.5538 49.0237 16.2384 49.0098 15.939 48.924C14.729 48.577 14.523 47.145 13.849 46.253C13.175 47.145 12.971 48.576 11.759 48.923C11.4597 49.0086 11.1444 49.0224 10.8388 48.9633C10.5332 48.9043 10.2458 48.774 9.99997 48.583C6.04997 45.488 3.36597 41.823 1.85697 37.855C0.38697 33.89 -0.0970298 29.3 0.0159702 24.287C0.25997 13.788 4.13997 6.47 12.7 0.366998ZM17.126 44.062C19.598 41.792 21.088 39.317 22.14 36.47C23.465 32.99 23.847 29.144 23.732 24.379C23.542 16.192 21.622 10.865 15.809 5.919V20.387C18.082 20.971 19.102 23.197 19.102 25.647C19.102 28.099 18.082 30.325 15.809 30.909V42.746C15.809 42.746 16.865 43.719 17.126 44.062ZM10.538 44.062C8.06597 41.792 6.61097 39.317 5.55797 36.47C4.23397 32.99 3.85197 29.144 3.96797 24.379C4.15797 16.209 6.06697 10.859 11.856 5.919V20.387C9.58297 20.971 8.56197 23.197 8.56197 25.647C8.56197 28.099 9.58197 30.325 11.856 30.909V42.746C11.856 42.746 10.79 43.731 10.538 44.062ZM13.832 23.017C13.1338 23.0165 12.4641 23.2932 11.9699 23.7864C11.4758 24.2796 11.1978 24.9489 11.197 25.647C11.197 27.101 12.377 28.278 13.832 28.278C14.5301 28.2785 15.1999 28.0018 15.694 27.5086C16.1881 27.0154 16.4662 26.3461 16.467 25.648C16.467 24.195 15.287 23.017 13.832 23.017Z" fill="#9C9C9C"/>
</svg>
