<svg width="17" height="14" viewBox="0 0 17 14" fill="none" xmlns="http://www.w3.org/2000/svg">
<path d="M15 0.834961H1.666C0.75 0.834961 0.0079999 1.53103 0.0079999 2.38209L0 11.663C0 12.514 0.75 13.2101 1.666 13.2101H15C15.916 13.2101 16.666 12.514 16.666 11.663V2.38209C16.666 1.53103 15.916 0.834961 15 0.834961ZM14.666 4.12225L8.775 7.54133C8.6421 7.61728 8.48908 7.6575 8.333 7.6575C8.17692 7.6575 8.0239 7.61728 7.891 7.54133L2 4.12225C1.9176 4.07817 1.84562 4.01914 1.78835 3.94868C1.73107 3.87821 1.68968 3.79776 1.66665 3.71213C1.64361 3.62649 1.6394 3.53742 1.65427 3.45024C1.66914 3.36306 1.70278 3.27956 1.75318 3.20471C1.80359 3.12986 1.86972 3.0652 1.94764 3.0146C2.02556 2.96399 2.11367 2.92848 2.20671 2.91017C2.29974 2.89186 2.3958 2.89114 2.48914 2.90804C2.58249 2.92494 2.6712 2.95912 2.75 3.00855L8.333 6.24943L13.916 3.00855C13.9948 2.95912 14.0835 2.92494 14.1769 2.90804C14.2702 2.89114 14.3663 2.89186 14.4593 2.91017C14.5523 2.92848 14.6404 2.96399 14.7184 3.0146C14.7963 3.0652 14.8624 3.12986 14.9128 3.20471C14.9632 3.27956 14.9969 3.36306 15.0117 3.45024C15.0266 3.53742 15.0224 3.62649 14.9994 3.71213C14.9763 3.79776 14.9349 3.87821 14.8777 3.94868C14.8204 4.01914 14.7484 4.07817 14.666 4.12225Z" fill="#B8B8B8"/>
</svg>
