<svg width="14" height="16" viewBox="0 0 14 16" fill="none" xmlns="http://www.w3.org/2000/svg">
<path d="M6.667 0.560547C3.167 0.560547 0 3.05061 0 6.90218C0 9.36162 2.042 12.2545 6.117 15.5872C6.27099 15.7106 6.46761 15.7784 6.671 15.7784C6.87439 15.7784 7.07101 15.7106 7.225 15.5872C11.292 12.2545 13.334 9.36162 13.334 6.90218C13.334 3.05061 10.167 0.560547 6.667 0.560547ZM6.667 8.29431C5.75 8.29431 5 7.59825 5 6.74719C5 5.89613 5.75 5.20006 6.667 5.20006C7.584 5.20006 8.334 5.89613 8.334 6.74719C8.334 7.59825 7.584 8.29431 6.667 8.29431Z" fill="#B8B8B8"/>
</svg>
