<svg width="15" height="15" viewBox="0 0 15 15" fill="none" xmlns="http://www.w3.org/2000/svg">
<path d="M13.503 9.64186L11.386 9.41726C11.1372 9.3902 10.8851 9.41581 10.6485 9.49217C10.4119 9.56852 10.197 9.69363 10.02 9.8581L8.48603 11.2809C6.12072 10.1643 4.19815 8.37994 2.99503 6.18472L4.53603 4.75361C4.89503 4.42135 5.07003 3.95731 5.01103 3.48491L4.77003 1.53593C4.72266 1.15857 4.52744 0.810558 4.22153 0.558131C3.91562 0.305705 3.52037 0.166492 3.11103 0.166994H1.67003C0.728028 0.166994 -0.0549714 0.894615 0.00302857 1.76795C0.445029 8.37316 6.13603 13.6475 13.245 14.0577C14.186 14.1115 14.97 13.3848 14.97 12.5106V11.1732C14.9721 10.795 14.8234 10.4294 14.5526 10.1467C14.2818 9.86401 13.908 9.68421 13.503 9.64186Z" fill="#B8B8B8"/>
</svg>
