<svg width="14" height="15" viewBox="0 0 14 15" fill="none" xmlns="http://www.w3.org/2000/svg">
<path d="M12.628 9.71447L10.6482 9.48815C10.4156 9.46089 10.1797 9.48669 9.95849 9.56363C9.73723 9.64057 9.53629 9.76664 9.37074 9.93237L7.93614 11.366C5.7241 10.2409 3.92611 8.44288 2.80095 6.23084L4.2421 4.78876C4.57783 4.45396 4.74149 3.98636 4.68632 3.51034L4.46093 1.54642C4.41664 1.16617 4.23407 0.81549 3.94798 0.561129C3.66189 0.306768 3.29225 0.166488 2.90944 0.166994H1.56181C0.680853 0.166994 -0.0514093 0.900192 0.00283232 1.78022C0.416191 8.43605 5.73842 13.7508 12.3868 14.1642C13.2668 14.2184 14 13.4861 14 12.6052V11.2576C14.0019 10.8764 13.8629 10.508 13.6096 10.2232C13.3564 9.93832 13.0068 9.75715 12.628 9.71447V9.71447Z" fill="#B8B8B8"/>
</svg>
