<svg width="16" height="16" viewBox="0 0 16 16" fill="none" xmlns="http://www.w3.org/2000/svg">
<path d="M14.025 10.717L11.908 10.475C11.6592 10.4458 11.4071 10.4734 11.1705 10.5557C10.9339 10.638 10.719 10.7728 10.542 10.95L9.008 12.483C6.6427 11.2799 4.72012 9.3573 3.517 6.992L5.058 5.45C5.417 5.092 5.592 4.592 5.533 4.083L5.292 1.983C5.24464 1.57641 5.04942 1.20143 4.7435 0.929441C4.43759 0.657456 4.04234 0.507456 3.633 0.507997H2.192C1.25 0.507997 0.467001 1.292 0.525001 2.233C0.967001 9.35 6.658 15.033 13.767 15.475C14.708 15.533 15.492 14.75 15.492 13.808V12.367C15.4941 11.9594 15.3454 11.5655 15.0746 11.2609C14.8038 10.9564 14.43 10.7626 14.025 10.717Z" fill="url(#paint0_linear_13_1009)"/>
<defs>
<linearGradient id="paint0_linear_13_1009" x1="8.007" y1="0.507996" x2="8.007" y2="15.478" gradientUnits="userSpaceOnUse">
<stop stop-color="#FFE600"/>
<stop offset="1" stop-color="#FF7A00"/>
</linearGradient>
</defs>
</svg>
