<svg width="14" height="10" viewBox="0 0 14 10" fill="none" xmlns="http://www.w3.org/2000/svg">
<path d="M11.667 1.66701C11.667 0.934015 11.067 0.334015 10.334 0.334015H9.00101C8.63401 0.334015 8.33401 0.634015 8.33401 1.00001C8.33401 1.36701 8.63401 1.66701 9.00101 1.66701H10.334V3.43401L8.01401 6.33401H5.66701V3.66701C5.66701 3.30001 5.36701 3.00001 5.00101 3.00001H3.00001C2.64974 2.99988 2.30287 3.06878 1.97924 3.20276C1.6556 3.33674 1.36154 3.53319 1.11386 3.78087C0.866181 4.02855 0.669736 4.32261 0.535754 4.64624C0.401771 4.96988 0.332877 5.31674 0.333008 5.66701V7.00001C0.333008 7.36701 0.633008 7.66701 1.00001 7.66701H1.66601C1.66601 8.77401 2.56001 9.66702 3.66601 9.66702C4.77301 9.66702 5.66601 8.77401 5.66601 7.66701H8.01301C8.42001 7.66701 8.80001 7.48001 9.05301 7.16701L11.373 4.26701C11.566 4.02701 11.666 3.73301 11.666 3.43401L11.667 1.66701ZM3.66701 8.33401C3.49044 8.33322 3.32135 8.26266 3.1966 8.13772C3.07184 8.01278 3.00153 7.84358 3.00101 7.66701H4.33401C4.33401 8.03401 4.03401 8.33401 3.66701 8.33401Z" fill="#A3A3A3"/>
<path d="M3.00001 1.00001H5.00001C5.36701 1.00001 5.66701 1.30001 5.66701 1.66701C5.66701 2.03301 5.36701 2.33301 5.00101 2.33301H3.00001C2.82344 2.33249 2.65425 2.26218 2.5293 2.13743C2.40436 2.01267 2.3338 1.84358 2.33301 1.66701C2.33301 1.30001 2.63301 1.00001 3.00001 1.00001ZM11.668 5.66602C10.561 5.66602 9.66801 6.56002 9.66801 7.66602C9.66801 8.77302 10.561 9.66602 11.668 9.66602C12.775 9.66602 13.668 8.77302 13.668 7.66602C13.668 6.56002 12.775 5.66602 11.668 5.66602ZM11.668 8.33301C11.4913 8.33249 11.3219 8.26204 11.1969 8.13707C11.072 8.0121 11.0015 7.84275 11.001 7.66602C11.001 7.30001 11.301 7.00001 11.668 7.00001C12.035 7.00001 12.335 7.30001 12.335 7.66602C12.335 8.03302 12.035 8.33301 11.668 8.33301Z" fill="#A3A3A3"/>
</svg>
