<svg width="32" height="30" viewBox="0 0 32 30" fill="none" xmlns="http://www.w3.org/2000/svg">
<path d="M25.3333 8H24.24L21.9733 1.76C21.7857 1.24547 21.4448 0.800867 20.9965 0.486155C20.5483 0.171443 20.0143 0.00176217 19.4667 0H17.3333C16.6 0 16 0.6 16 1.33333C16 2.06667 16.6 2.66667 17.3333 2.66667H19.4667L21.4133 8H15L14.52 6.66667H14.64C15.3733 6.66667 15.9733 6.06667 15.9733 5.33333C15.9733 4.6 15.3733 4 14.64 4H10.6667C9.93333 4 9.33333 4.6 9.33333 5.33333C9.33333 6.06667 9.93333 6.66667 10.6667 6.66667H11.6667L14.0933 13.3333H13.2C12.6133 10.36 10.12 8.16 7 8.01333C3.26667 7.82667 0 10.9333 0 14.6667C0 18.4 2.93333 21.3333 6.66667 21.3333C9.94667 21.3333 12.6 19.08 13.2 16H18.8C19.3867 18.9733 21.88 21.1733 25 21.32C28.7333 21.4933 32 18.4 32 14.6533C32 10.9333 29.0667 8 25.3333 8ZM8 16H10.4267C9.86667 17.64 8.29333 18.7733 6.4 18.6533C4.41333 18.5333 2.76 16.8533 2.66667 14.8533C2.57333 12.52 4.36 10.6667 6.66667 10.6667C8.44 10.6667 9.89333 11.7733 10.4267 13.3333H8C7.26667 13.3333 6.66667 13.9333 6.66667 14.6667C6.66667 15.4 7.26667 16 8 16ZM18.8 13.3333H16.9333L15.96 10.6667H20C19.4133 11.44 18.9867 12.3333 18.8 13.3333ZM25.1733 18.6667C23.12 18.5867 21.3867 16.84 21.3333 14.7733C21.3067 13.4933 21.8533 12.3733 22.7333 11.6267L23.56 13.8933C23.8133 14.5867 24.5733 14.9467 25.2667 14.6933C25.96 14.44 26.32 13.68 26.0667 12.9867L25.2267 10.68L25.24 10.6667C25.7746 10.6484 26.3073 10.7387 26.806 10.9321C27.3047 11.1255 27.7591 11.4179 28.1416 11.7917C28.5242 12.1656 28.827 12.6131 29.0319 13.1072C29.2367 13.6013 29.3392 14.1318 29.3333 14.6667C29.3333 16.96 27.4933 18.7467 25.1733 18.6667ZM14.6667 25.3333H9.33333L17.3333 29.3333V26.6667H22.6667L14.6667 22.6667V25.3333Z" fill="url(#paint0_linear_7_1245)"/>
<defs>
<linearGradient id="paint0_linear_7_1245" x1="16" y1="0" x2="16" y2="29.3333" gradientUnits="userSpaceOnUse">
<stop stop-color="#FFE600"/>
<stop offset="1" stop-color="#FF7A00"/>
</linearGradient>
</defs>
</svg>
