<svg width="30" height="30" viewBox="0 0 30 30" fill="none" xmlns="http://www.w3.org/2000/svg">
<path d="M14.6667 9.33333C11.72 9.33333 9.33333 11.72 9.33333 14.6667C9.33333 17.6133 11.72 20 14.6667 20C17.6133 20 20 17.6133 20 14.6667C20 11.72 17.6133 9.33333 14.6667 9.33333ZM26.5867 13.3333C26.2847 10.6295 25.0722 8.10872 23.1484 6.18493C21.2246 4.26113 18.7038 3.04868 16 2.74667V1.33333C16 0.6 15.4 0 14.6667 0C13.9333 0 13.3333 0.6 13.3333 1.33333V2.74667C10.6295 3.04868 8.10872 4.26113 6.18493 6.18493C4.26113 8.10872 3.04868 10.6295 2.74667 13.3333H1.33333C0.6 13.3333 0 13.9333 0 14.6667C0 15.4 0.6 16 1.33333 16H2.74667C3.04868 18.7038 4.26113 21.2246 6.18493 23.1484C8.10872 25.0722 10.6295 26.2847 13.3333 26.5867V28C13.3333 28.7333 13.9333 29.3333 14.6667 29.3333C15.4 29.3333 16 28.7333 16 28V26.5867C18.7038 26.2847 21.2246 25.0722 23.1484 23.1484C25.0722 21.2246 26.2847 18.7038 26.5867 16H28C28.7333 16 29.3333 15.4 29.3333 14.6667C29.3333 13.9333 28.7333 13.3333 28 13.3333H26.5867ZM14.6667 24C9.50667 24 5.33333 19.8267 5.33333 14.6667C5.33333 9.50667 9.50667 5.33333 14.6667 5.33333C19.8267 5.33333 24 9.50667 24 14.6667C24 19.8267 19.8267 24 14.6667 24Z" fill="url(#paint0_linear_7_1276)"/>
<defs>
<linearGradient id="paint0_linear_7_1276" x1="14.6667" y1="0" x2="14.6667" y2="29.3333" gradientUnits="userSpaceOnUse">
<stop stop-color="#FFE600"/>
<stop offset="1" stop-color="#FF7A00"/>
</linearGradient>
</defs>
</svg>
