<svg width="27" height="23" viewBox="0 0 27 23" fill="none" xmlns="http://www.w3.org/2000/svg">
<path d="M20 17.7733C18.2 17.7733 17.0667 18.3333 16.0667 18.84C15.2 19.28 14.4933 19.64 13.3333 19.64C12.1333 19.64 11.4667 19.3067 10.6 18.84C9.6 18.3333 8.50667 17.7733 6.66667 17.7733C4.82667 17.7733 3.73333 18.3333 2.73333 18.84C2.16 19.1333 1.65333 19.3867 1.04 19.5333C0.44 19.6667 0 20.1467 0 20.7467V20.88C0 21.68 0.746667 22.2533 1.52 22.0933C2.50667 21.8933 3.25333 21.52 3.93333 21.1733C4.8 20.7333 5.49333 20.3733 6.66667 20.3733C7.84 20.3733 8.53333 20.7067 9.4 21.1733C10.4 21.68 11.4933 22.24 13.3333 22.24C15.1733 22.24 16.2667 21.68 17.2667 21.1733C18.1333 20.7333 18.84 20.3733 20 20.3733C21.2 20.3733 21.8667 20.7067 22.7333 21.1733C23.4267 21.52 24.1733 21.9067 25.1733 22.1067C25.3535 22.1418 25.5391 22.137 25.7172 22.0925C25.8952 22.048 26.0613 21.965 26.2038 21.8493C26.3462 21.7335 26.4615 21.5879 26.5415 21.4228C26.6215 21.2576 26.6642 21.0768 26.6667 20.8933V20.7733C26.6667 20.16 26.2133 19.68 25.6133 19.5467C25 19.4133 24.5067 19.16 23.9333 18.8533C22.9333 18.3333 21.8 17.7733 20 17.7733ZM20 11.84C18.2 11.84 17.0667 12.4133 16.0667 12.9067C15.2 13.3333 14.4933 13.7067 13.3333 13.7067C12.1333 13.7067 11.4667 13.3733 10.6 12.9067C9.6 12.4 8.50667 11.84 6.66667 11.84C4.82667 11.84 3.73333 12.4133 2.73333 12.9067C2.16 13.1867 1.65333 13.4533 1.02667 13.6C0.44 13.7333 0 14.2133 0 14.8133V14.9467C7.6197e-05 15.131 0.0412299 15.3129 0.120467 15.4793C0.199705 15.6457 0.315034 15.7923 0.458065 15.9085C0.601096 16.0247 0.768232 16.1076 0.947316 16.1511C1.1264 16.1946 1.31293 16.1976 1.49333 16.16C2.49333 15.96 3.24 15.5733 3.93333 15.24C4.8 14.7733 5.46667 14.44 6.66667 14.44C7.86667 14.44 8.53333 14.7733 9.4 15.24C10.4 15.7467 11.4933 16.3067 13.3333 16.3067C15.1733 16.3067 16.2667 15.7333 17.2667 15.24C18.1333 14.7733 18.8 14.44 20 14.44C21.2 14.44 21.8667 14.7733 22.7333 15.24C23.4267 15.5867 24.1733 15.9733 25.1733 16.1733C25.3546 16.2087 25.5414 16.2036 25.7204 16.1583C25.8994 16.1131 26.0662 16.0289 26.2089 15.9117C26.3516 15.7945 26.4666 15.6472 26.5457 15.4804C26.6249 15.3136 26.6662 15.1313 26.6667 14.9467V14.8267C26.6667 14.2133 26.2133 13.7333 25.6133 13.6C25 13.4667 24.5067 13.2133 23.9333 12.9067C22.9333 12.4 21.8 11.84 20 11.84ZM23.9333 1.06667C22.9333 0.56 21.8267 0 20 0C18.1733 0 17.0667 0.56 16.0667 1.06667C15.2 1.49333 14.4933 1.86667 13.3333 1.86667C12.1333 1.86667 11.4667 1.53333 10.6 1.06667C9.6 0.573333 8.50667 0 6.66667 0C4.82667 0 3.73333 0.56 2.73333 1.06667C2.16 1.36 1.65333 1.61333 1.04 1.76C0.44 1.89333 0 2.37333 0 2.97333V3.06667C0 3.86667 0.72 4.45333 1.49333 4.29333C2.49333 4.09333 3.24 3.70667 3.93333 3.37333C4.8 2.93333 5.49333 2.57333 6.66667 2.57333C7.84 2.57333 8.53333 2.90667 9.4 3.37333C10.4 3.88 11.4933 4.44 13.3333 4.44C15.1733 4.44 16.2667 3.86667 17.2667 3.37333C18.1333 2.94667 18.84 2.57333 20 2.57333C21.2 2.57333 21.8667 2.90667 22.7333 3.37333C23.4267 3.72 24.1733 4.10667 25.1733 4.30667C25.3546 4.34202 25.5414 4.3369 25.7204 4.29167C25.8994 4.24644 26.0662 4.16221 26.2089 4.04501C26.3516 3.92781 26.4666 3.78053 26.5457 3.61371C26.6249 3.44689 26.6662 3.26464 26.6667 3.08V2.96C26.6667 2.34667 26.2133 1.86667 25.6133 1.73333C25 1.6 24.5067 1.36 23.9333 1.06667ZM20 5.90667C18.2 5.90667 17.0667 6.48 16.0667 6.97333C15.2 7.44 14.5333 7.77333 13.3333 7.77333C12.1333 7.77333 11.4667 7.44 10.6 6.97333C9.6 6.46667 8.50667 5.90667 6.66667 5.90667C4.82667 5.90667 3.73333 6.48 2.73333 6.97333C2.16 7.28 1.66667 7.53333 1.05333 7.66667C0.453333 7.8 0 8.28 0 8.89333V9.01333C7.6197e-05 9.19762 0.0412299 9.37958 0.120467 9.54597C0.199705 9.71236 0.315034 9.85899 0.458065 9.9752C0.601096 10.0914 0.768232 10.1743 0.947316 10.2178C1.1264 10.2613 1.31293 10.2643 1.49333 10.2267C2.49333 10.0267 3.24 9.64 3.93333 9.30667C4.8 8.88 5.50667 8.50667 6.66667 8.50667C7.82667 8.50667 8.53333 8.84 9.4 9.30667C10.4 9.81333 11.4933 10.3733 13.3333 10.3733C15.1733 10.3733 16.2667 9.8 17.2667 9.30667C18.1333 8.88 18.84 8.50667 20 8.50667C21.2 8.50667 21.8667 8.84 22.7333 9.30667C23.4267 9.65333 24.1733 10.04 25.1733 10.24C25.3535 10.2752 25.5391 10.2703 25.7172 10.2259C25.8952 10.1814 26.0613 10.0983 26.2038 9.98261C26.3462 9.86688 26.4615 9.72128 26.5415 9.55609C26.6215 9.39091 26.6642 9.21018 26.6667 9.02667V8.90667C26.6667 8.29333 26.2133 7.81333 25.6133 7.68C25 7.54667 24.5067 7.29333 23.9333 6.98667C22.9333 6.46667 21.8 5.90667 20 5.90667Z" fill="url(#paint0_linear_7_1275)"/>
<defs>
<linearGradient id="paint0_linear_7_1275" x1="13.3333" y1="0" x2="13.3333" y2="22.24" gradientUnits="userSpaceOnUse">
<stop stop-color="#FFE600"/>
<stop offset="1" stop-color="#FF7A00"/>
</linearGradient>
</defs>
</svg>
