<svg width="22" height="22" viewBox="0 0 22 22" fill="none" xmlns="http://www.w3.org/2000/svg">
<path d="M2.73351 5.34918C0.987887 7.09509 0.0050169 9.46145 1.91526e-05 11.9303C-0.00497859 14.3992 0.968303 16.7695 2.70684 18.5225C4.66684 13.9892 8.16018 10.2025 12.5202 7.94918C8.75693 11.1334 6.2166 15.526 5.33351 20.3758C8.80018 22.0158 13.0668 21.4158 15.9335 18.5492C19.9202 14.5625 21.0402 3.69585 21.2802 0.709179C21.2885 0.614279 21.276 0.5187 21.2434 0.42917C21.2109 0.339639 21.1591 0.258331 21.0917 0.190966C21.0244 0.123602 20.9431 0.0718188 20.8535 0.0392598C20.764 0.00670077 20.6684 -0.00584255 20.5735 0.00251215C17.5868 0.242512 6.72018 1.36251 2.73351 5.34918Z" fill="url(#paint0_linear_7_1290)"/>
<defs>
<linearGradient id="paint0_linear_7_1290" x1="10.6413" y1="0" x2="10.6413" y2="21.2751" gradientUnits="userSpaceOnUse">
<stop stop-color="#FFE600"/>
<stop offset="1" stop-color="#FF7A00"/>
</linearGradient>
</defs>
</svg>
