<svg width="27" height="22" viewBox="0 0 27 22" fill="none" xmlns="http://www.w3.org/2000/svg">
<path d="M23.2812 8.02572C23.1497 8.22009 23.0718 8.44573 23.0554 8.67985C23.039 8.91396 23.0847 9.14826 23.1879 9.35905C23.5186 10.1311 23.7519 10.9417 23.8812 11.7724C24.2244 13.9192 23.9035 16.1197 22.9612 18.0791C22.8468 18.294 22.6757 18.4734 22.4665 18.598C22.2573 18.7226 22.018 18.7875 21.7746 18.7857H4.90789C4.66305 18.7862 4.4228 18.7193 4.21348 18.5923C4.00416 18.4653 3.83385 18.2831 3.72123 18.0657C2.86773 16.3343 2.50008 14.4037 2.65747 12.4798C2.81486 10.5559 3.49139 8.71073 4.61493 7.14105C5.73848 5.57137 7.26693 4.336 9.03734 3.56664C10.8077 2.79729 12.7537 2.52278 14.6679 2.77239C15.6364 2.88622 16.5837 3.13765 17.4812 3.51905C17.692 3.62222 17.9263 3.66791 18.1604 3.65153C18.3945 3.63514 18.6202 3.55725 18.8146 3.42572C19.0171 3.29231 19.1794 3.1062 19.284 2.88742C19.3886 2.66864 19.4315 2.42548 19.4082 2.1841C19.3849 1.94272 19.2962 1.71228 19.1516 1.51756C19.0071 1.32285 18.8122 1.17124 18.5879 1.07905C16.0122 -0.0254029 13.1539 -0.290162 10.4191 0.322385C7.68432 0.934932 5.21208 2.39364 3.35357 4.4913C1.49505 6.58895 0.344758 9.2189 0.0660905 12.0076C-0.212577 14.7962 0.394548 17.6018 1.80123 20.0257C2.03391 20.4288 2.36801 20.7639 2.77033 20.9978C3.17266 21.2317 3.62919 21.3562 4.09456 21.3591H22.5612C23.0311 21.3609 23.4932 21.2386 23.9006 21.0044C24.308 20.7703 24.6463 20.4327 24.8812 20.0257C25.9111 18.241 26.5132 16.2418 26.6405 14.1852C26.7677 12.1286 26.4166 10.0705 25.6146 8.17239C25.513 7.95607 25.3551 7.77102 25.1575 7.63662C24.9599 7.50222 24.7298 7.4234 24.4913 7.4084C24.2528 7.39341 24.0146 7.4428 23.8018 7.5514C23.5889 7.66 23.4091 7.82382 23.2812 8.02572Z" fill="url(#paint0_linear_7_1291)"/>
<path d="M11.4546 11.4791C10.9542 11.9794 10.6731 12.6581 10.6731 13.3657C10.6731 13.7161 10.7421 14.0631 10.8762 14.3868C11.0103 14.7105 11.2068 15.0046 11.4546 15.2524C11.7023 15.5001 11.9965 15.6967 12.3202 15.8308C12.6439 15.9649 12.9908 16.0339 13.3412 16.0339C14.0489 16.0339 14.7275 15.7528 15.2279 15.2524L22.7746 3.93239L11.4546 11.4791Z" fill="url(#paint1_linear_7_1291)"/>
<defs>
<linearGradient id="paint0_linear_7_1291" x1="13.333" y1="0" x2="13.333" y2="21.3591" gradientUnits="userSpaceOnUse">
<stop stop-color="#FFE600"/>
<stop offset="1" stop-color="#FF7A00"/>
</linearGradient>
<linearGradient id="paint1_linear_7_1291" x1="13.333" y1="0" x2="13.333" y2="21.3591" gradientUnits="userSpaceOnUse">
<stop stop-color="#FFE600"/>
<stop offset="1" stop-color="#FF7A00"/>
</linearGradient>
</defs>
</svg>
