<svg width="12" height="7" viewBox="0 0 12 7" fill="none" xmlns="http://www.w3.org/2000/svg">
<path d="M0.264139 0.264139C0.433317 0.0950108 0.662742 0 0.901961 0C1.14118 0 1.37061 0.0950108 1.53978 0.264139L6.00545 4.7298L10.4711 0.264139C10.6413 0.099804 10.8691 0.00887153 11.1057 0.010927C11.3422 0.0129825 11.5685 0.107861 11.7358 0.275128C11.903 0.442395 11.9979 0.668666 12 0.905208C12.002 1.14175 11.9111 1.36964 11.7468 1.53978L6.64327 6.64327C6.47409 6.8124 6.24467 6.90741 6.00545 6.90741C5.76623 6.90741 5.5368 6.8124 5.36762 6.64327L0.264139 1.53978C0.0950107 1.37061 0 1.14118 0 0.901961C0 0.662742 0.0950107 0.433317 0.264139 0.264139V0.264139Z" fill="#8F8F8F"/>
</svg>
