<svg width="52" height="52" viewBox="0 0 52 52" fill="none" xmlns="http://www.w3.org/2000/svg">
<path d="M4 2C4 3.10457 3.10457 4 2 4C0.89543 4 0 3.10457 0 2C0 0.89543 0.89543 0 2 0C3.10457 0 4 0.89543 4 2Z" fill="#FFBB00"/>
<path d="M4 14C4 15.1046 3.10457 16 2 16C0.89543 16 0 15.1046 0 14C0 12.8954 0.89543 12 2 12C3.10457 12 4 12.8954 4 14Z" fill="#FFBB00"/>
<path d="M4 26C4 27.1046 3.10457 28 2 28C0.89543 28 0 27.1046 0 26C0 24.8954 0.89543 24 2 24C3.10457 24 4 24.8954 4 26Z" fill="#FFBB00"/>
<path d="M4 38C4 39.1046 3.10457 40 2 40C0.89543 40 0 39.1046 0 38C0 36.8954 0.89543 36 2 36C3.10457 36 4 36.8954 4 38Z" fill="#FFBB00"/>
<path d="M4 50C4 51.1046 3.10457 52 2 52C0.89543 52 0 51.1046 0 50C0 48.8954 0.89543 48 2 48C3.10457 48 4 48.8954 4 50Z" fill="#FFBB00"/>
<path d="M16 2C16 3.10457 15.1046 4 14 4C12.8954 4 12 3.10457 12 2C12 0.89543 12.8954 0 14 0C15.1046 0 16 0.89543 16 2Z" fill="#FFBB00"/>
<path d="M16 14C16 15.1046 15.1046 16 14 16C12.8954 16 12 15.1046 12 14C12 12.8954 12.8954 12 14 12C15.1046 12 16 12.8954 16 14Z" fill="#FFBB00"/>
<path d="M16 26C16 27.1046 15.1046 28 14 28C12.8954 28 12 27.1046 12 26C12 24.8954 12.8954 24 14 24C15.1046 24 16 24.8954 16 26Z" fill="#FFBB00"/>
<path d="M16 38C16 39.1046 15.1046 40 14 40C12.8954 40 12 39.1046 12 38C12 36.8954 12.8954 36 14 36C15.1046 36 16 36.8954 16 38Z" fill="#FFBB00"/>
<path d="M16 50C16 51.1046 15.1046 52 14 52C12.8954 52 12 51.1046 12 50C12 48.8954 12.8954 48 14 48C15.1046 48 16 48.8954 16 50Z" fill="#FFBB00"/>
<path d="M28 14C28 15.1046 27.1046 16 26 16C24.8954 16 24 15.1046 24 14C24 12.8954 24.8954 12 26 12C27.1046 12 28 12.8954 28 14Z" fill="#FFBB00"/>
<path d="M28 26C28 27.1046 27.1046 28 26 28C24.8954 28 24 27.1046 24 26C24 24.8954 24.8954 24 26 24C27.1046 24 28 24.8954 28 26Z" fill="#FFBB00"/>
<path d="M28 38C28 39.1046 27.1046 40 26 40C24.8954 40 24 39.1046 24 38C24 36.8954 24.8954 36 26 36C27.1046 36 28 36.8954 28 38Z" fill="#FFBB00"/>
<path d="M28 50C28 51.1046 27.1046 52 26 52C24.8954 52 24 51.1046 24 50C24 48.8954 24.8954 48 26 48C27.1046 48 28 48.8954 28 50Z" fill="#FFBB00"/>
<path d="M40 26C40 27.1046 39.1046 28 38 28C36.8954 28 36 27.1046 36 26C36 24.8954 36.8954 24 38 24C39.1046 24 40 24.8954 40 26Z" fill="#FFBB00"/>
<path d="M40 38C40 39.1046 39.1046 40 38 40C36.8954 40 36 39.1046 36 38C36 36.8954 36.8954 36 38 36C39.1046 36 40 36.8954 40 38Z" fill="#FFBB00"/>
<path d="M40 50C40 51.1046 39.1046 52 38 52C36.8954 52 36 51.1046 36 50C36 48.8954 36.8954 48 38 48C39.1046 48 40 48.8954 40 50Z" fill="#FFBB00"/>
<path d="M52 38C52 39.1046 51.1046 40 50 40C48.8954 40 48 39.1046 48 38C48 36.8954 48.8954 36 50 36C51.1046 36 52 36.8954 52 38Z" fill="#FFBB00"/>
<path d="M52 50C52 51.1046 51.1046 52 50 52C48.8954 52 48 51.1046 48 50C48 48.8954 48.8954 48 50 48C51.1046 48 52 48.8954 52 50Z" fill="#FFBB00"/>
</svg>
