<svg width="32" height="32" viewBox="0 0 32 32" fill="none" xmlns="http://www.w3.org/2000/svg">
<circle cx="16" cy="16" r="16" fill="black"/>
<path d="M23.7917 10.375H22.9375L21.1667 5.4025C21.0201 4.99249 20.7537 4.63819 20.4035 4.3874C20.0534 4.13662 19.6362 4.0014 19.2083 4H17.5417C16.9687 4 16.5 4.47812 16.5 5.0625C16.5 5.64688 16.9687 6.125 17.5417 6.125H19.2083L20.7292 10.375H15.7187L15.3437 9.3125H15.4375C16.0104 9.3125 16.4792 8.83438 16.4792 8.25C16.4792 7.66562 16.0104 7.1875 15.4375 7.1875H12.3333C11.7604 7.1875 11.2917 7.66562 11.2917 8.25C11.2917 8.83438 11.7604 9.3125 12.3333 9.3125H13.1146L15.0104 14.625H14.3125C13.8542 12.2556 11.9062 10.5025 9.46875 10.3856C6.55208 10.2369 4 12.7125 4 15.6875C4 18.6625 6.29167 21 9.20833 21C11.7708 21 13.8437 19.2044 14.3125 16.75H18.6875C19.1458 19.1194 21.0937 20.8725 23.5312 20.9894C26.4479 21.1275 29 18.6625 29 15.6769C29 12.7125 26.7083 10.375 23.7917 10.375ZM10.25 16.75H12.1458C11.7083 18.0569 10.4792 18.96 9 18.8644C7.44792 18.7687 6.15625 17.43 6.08333 15.8363C6.01042 13.9769 7.40625 12.5 9.20833 12.5C10.5937 12.5 11.7292 13.3819 12.1458 14.625H10.25C9.67708 14.625 9.20833 15.1031 9.20833 15.6875C9.20833 16.2719 9.67708 16.75 10.25 16.75ZM18.6875 14.625H17.2292L16.4687 12.5H19.625C19.1667 13.1162 18.8333 13.8281 18.6875 14.625ZM23.6667 18.875C22.0625 18.8113 20.7083 17.4194 20.6667 15.7725C20.6458 14.7525 21.0729 13.86 21.7604 13.265L22.4062 15.0713C22.6042 15.6238 23.1979 15.9106 23.7396 15.7088C24.2813 15.5069 24.5625 14.9012 24.3646 14.3487L23.7083 12.5106L23.7187 12.5C24.1364 12.4855 24.5526 12.5574 24.9422 12.7115C25.3318 12.8656 25.6868 13.0986 25.9857 13.3965C26.2845 13.6944 26.5211 14.051 26.6811 14.4448C26.8411 14.8385 26.9213 15.2613 26.9167 15.6875C26.9167 17.515 25.4792 18.9387 23.6667 18.875Z" fill="url(#paint0_linear_17_1013)"/>
<path d="M14.8158 24.4211C15.1987 24.4869 15.5235 24.6808 15.7902 25.0028C16.0569 25.3249 16.1903 25.6897 16.1903 26.0972C16.1903 26.4455 16.0945 26.761 15.9031 27.0437C15.7184 27.3197 15.4483 27.5399 15.0927 27.7042C14.7371 27.862 14.3234 27.9408 13.8516 27.9408H11V21.0887H13.7182C14.2037 21.0887 14.6209 21.1676 14.9696 21.3254C15.3184 21.4831 15.5817 21.6967 15.7595 21.9662C15.9372 22.2291 16.0261 22.5249 16.0261 22.8535C16.0261 23.2479 15.9167 23.5765 15.6979 23.8394C15.4791 24.1023 15.185 24.2962 14.8158 24.4211ZM12.1693 23.9676H13.1028C13.4857 23.9676 13.7832 23.8854 13.9952 23.7211C14.214 23.5502 14.3234 23.307 14.3234 22.9915C14.3234 22.6826 14.214 22.4427 13.9952 22.2718C13.7832 22.0944 13.4857 22.0056 13.1028 22.0056H12.1693V23.9676ZM13.2361 27.0239C13.6327 27.0239 13.9439 26.9319 14.1695 26.7479C14.3952 26.5638 14.508 26.3075 14.508 25.9789C14.508 25.6437 14.3884 25.3775 14.149 25.1803C13.9097 24.9831 13.5917 24.8845 13.1951 24.8845H12.1693V27.0239H13.2361Z" fill="url(#paint1_linear_17_1013)"/>
<path d="M16.0455 24.5C16.0455 23.8296 16.2062 23.2282 16.5276 22.6958C16.8558 22.1634 17.2969 21.7493 17.8508 21.4535C18.4115 21.1512 19.0235 21 19.6868 21C20.4459 21 21.1195 21.1808 21.7076 21.5423C22.3025 21.8972 22.7333 22.4033 23 23.0606H21.5947C21.4101 22.6991 21.1537 22.4296 20.8254 22.2521C20.4972 22.0746 20.4061 22.0253 19.9753 22.0253C19.5034 22.0253 19.3073 22.0878 18.9381 22.2915C18.5688 22.4953 18.2782 22.7878 18.0662 23.169C17.861 23.5502 17.7584 23.9939 17.7584 24.5C17.7584 25.0061 17.861 25.4498 18.0662 25.831C18.2782 26.2122 18.5688 26.508 18.9381 26.7183C19.3073 26.9221 19.5034 27.0437 19.9753 27.0437C20.4061 27.0437 20.4972 26.9352 20.8254 26.7577C21.1537 26.5803 21.4101 26.3108 21.5947 25.9493H23C22.7333 26.6066 22.3025 27.1127 21.7076 27.4676C21.1195 27.8225 20.4459 28 19.6868 28C19.0167 28 18.4047 27.8521 17.8508 27.5563C17.2969 27.254 16.8558 26.8366 16.5276 26.3042C16.2062 25.7718 16.0455 25.1704 16.0455 24.5Z" fill="url(#paint2_linear_17_1013)"/>
<defs>
<linearGradient id="paint0_linear_17_1013" x1="16.5" y1="4" x2="16.5" y2="21" gradientUnits="userSpaceOnUse">
<stop stop-color="#FFE600"/>
<stop offset="1" stop-color="#FF7A00"/>
</linearGradient>
<linearGradient id="paint1_linear_17_1013" x1="17" y1="21" x2="17" y2="28" gradientUnits="userSpaceOnUse">
<stop stop-color="#FF7A00"/>
<stop offset="1" stop-color="#FFE600"/>
</linearGradient>
<linearGradient id="paint2_linear_17_1013" x1="17" y1="21" x2="17" y2="28" gradientUnits="userSpaceOnUse">
<stop stop-color="#FF7A00"/>
<stop offset="1" stop-color="#FFE600"/>
</linearGradient>
</defs>
</svg>
