<svg width="235" height="54" viewBox="0 0 235 54" fill="none" xmlns="http://www.w3.org/2000/svg">
<path d="M142.396 0H193.396V54H142.396V0Z" fill="black"/>
<path d="M7.182 18.882C7.854 17.79 8.82 16.908 10.08 16.236C11.34 15.564 12.782 15.228 14.406 15.228C16.338 15.228 18.088 15.718 19.656 16.698C21.224 17.678 22.456 19.078 23.352 20.898C24.276 22.718 24.738 24.832 24.738 27.24C24.738 29.648 24.276 31.776 23.352 33.624C22.456 35.444 21.224 36.858 19.656 37.866C18.088 38.846 16.338 39.336 14.406 39.336C12.754 39.336 11.312 39.014 10.08 38.37C8.848 37.698 7.882 36.816 7.182 35.724V39H0V7.92H7.182V18.882ZM17.43 27.24C17.43 25.448 16.926 24.048 15.918 23.04C14.938 22.004 13.72 21.486 12.264 21.486C10.836 21.486 9.618 22.004 8.61 23.04C7.63 24.076 7.14 25.49 7.14 27.282C7.14 29.074 7.63 30.488 8.61 31.524C9.618 32.56 10.836 33.078 12.264 33.078C13.692 33.078 14.91 32.56 15.918 31.524C16.926 30.46 17.43 29.032 17.43 27.24Z" fill="white"/>
<path d="M28.5479 13.128C27.2879 13.128 26.2519 12.764 25.4399 12.036C24.6559 11.28 24.2639 10.356 24.2639 9.264C24.2639 8.144 24.6559 7.22 25.4399 6.492C26.2519 5.736 27.2879 5.358 28.5479 5.358C29.7799 5.358 30.7879 5.736 31.5719 6.492C32.3839 7.22 32.7899 8.144 32.7899 9.264C32.7899 10.356 32.3839 11.28 31.5719 12.036C30.7879 12.764 29.7799 13.128 28.5479 13.128ZM32.1179 15.564V39H24.9359V15.564H32.1179Z" fill="white"/>
<path d="M48.0746 39L40.9346 29.172V39H33.7526V7.92H40.9346V25.098L48.0326 15.564H56.8946L47.1506 27.324L56.9786 39H48.0746Z" fill="white"/>
<path d="M107.564 16.564V40H100.382V36.808C99.6542 37.844 98.6602 38.684 97.4002 39.328C96.1682 39.944 94.7962 40.252 93.2842 40.252C91.4922 40.252 89.9102 39.86 88.5382 39.076C87.1662 38.264 86.1022 37.102 85.3462 35.59C84.5902 34.078 84.2122 32.3 84.2122 30.256V16.564H91.3522V29.29C91.3522 30.858 91.7582 32.076 92.5702 32.944C93.3822 33.812 94.4742 34.246 95.8462 34.246C97.2462 34.246 98.3522 33.812 99.1642 32.944C99.9762 32.076 100.382 30.858 100.382 29.29V16.564H107.564Z" fill="white"/>
<path d="M118.687 40.336C116.643 40.336 114.823 39.986 113.227 39.286C111.631 38.586 110.371 37.634 109.447 36.43C108.523 35.198 108.005 33.826 107.893 32.314H114.991C115.075 33.126 115.453 33.784 116.125 34.288C116.797 34.792 117.623 35.044 118.603 35.044C119.499 35.044 120.185 34.876 120.661 34.54C121.165 34.176 121.417 33.714 121.417 33.154C121.417 32.482 121.067 31.992 120.367 31.684C119.667 31.348 118.533 30.984 116.965 30.592C115.285 30.2 113.885 29.794 112.765 29.374C111.645 28.926 110.679 28.24 109.867 27.316C109.055 26.364 108.649 25.09 108.649 23.494C108.649 22.15 109.013 20.932 109.741 19.84C110.497 18.72 111.589 17.838 113.017 17.194C114.473 16.55 116.195 16.228 118.183 16.228C121.123 16.228 123.433 16.956 125.113 18.412C126.821 19.868 127.801 21.8 128.053 24.208H121.417C121.305 23.396 120.941 22.752 120.325 22.276C119.737 21.8 118.953 21.562 117.973 21.562C117.133 21.562 116.489 21.73 116.041 22.066C115.593 22.374 115.369 22.808 115.369 23.368C115.369 24.04 115.719 24.544 116.419 24.88C117.147 25.216 118.267 25.552 119.779 25.888C121.515 26.336 122.929 26.784 124.021 27.232C125.113 27.652 126.065 28.352 126.877 29.332C127.717 30.284 128.151 31.572 128.179 33.196C128.179 34.568 127.787 35.8 127.003 36.892C126.247 37.956 125.141 38.796 123.685 39.412C122.257 40.028 120.591 40.336 118.687 40.336Z" fill="white"/>
<path d="M142.065 33.91V40H138.411C135.807 40 133.777 39.37 132.321 38.11C130.865 36.822 130.137 34.736 130.137 31.852V22.528H127.281V16.564H130.137V10.852H137.319V16.564H142.023V22.528H137.319V31.936C137.319 32.636 137.487 33.14 137.823 33.448C138.159 33.756 138.719 33.91 139.503 33.91H142.065Z" fill="white"/>
<path d="M183.237 16.732C185.953 16.732 188.165 17.572 189.873 19.252C191.581 20.904 192.435 23.368 192.435 26.644V40H190.587V26.77C190.587 24.054 189.901 21.982 188.529 20.554C187.157 19.098 185.295 18.37 182.943 18.37C180.479 18.37 178.505 19.154 177.021 20.722C175.565 22.29 174.837 24.614 174.837 27.694V40H172.947V17.194H174.837V22.024C175.481 20.316 176.545 19.014 178.029 18.118C179.541 17.194 181.277 16.732 183.237 16.732Z" fill="white"/>
<path d="M224.609 16.312C227.521 16.312 229.831 17.194 231.539 18.958C233.275 20.722 234.143 23.172 234.143 26.308V40H227.003V27.274C227.003 25.762 226.597 24.6 225.785 23.788C225.001 22.948 223.909 22.528 222.509 22.528C221.109 22.528 220.003 22.948 219.191 23.788C218.407 24.6 218.015 25.762 218.015 27.274V40H210.875V27.274C210.875 25.762 210.469 24.6 209.657 23.788C208.873 22.948 207.781 22.528 206.381 22.528C204.981 22.528 203.875 22.948 203.063 23.788C202.279 24.6 201.887 25.762 201.887 27.274V40H194.705V16.564H201.887V19.504C202.615 18.524 203.567 17.754 204.743 17.194C205.919 16.606 207.249 16.312 208.733 16.312C210.497 16.312 212.065 16.69 213.437 17.446C214.837 18.202 215.929 19.28 216.713 20.68C217.525 19.392 218.631 18.342 220.031 17.53C221.431 16.718 222.957 16.312 224.609 16.312Z" fill="white"/>
<path d="M156.718 40.072C154.002 40.072 151.552 39.442 149.368 38.182C147.184 36.894 145.476 35.102 144.244 32.806C143.012 30.51 142.396 27.92 142.396 25.036C142.396 22.124 143.012 19.534 144.244 17.266C145.476 14.97 147.184 13.192 149.368 11.932C151.552 10.644 154.002 10 156.718 10C159.434 10 161.884 10.644 164.068 11.932C166.252 13.192 167.96 14.97 169.192 17.266C170.424 19.534 171.04 22.124 171.04 25.036C171.04 27.92 170.424 30.51 169.192 32.806C167.96 35.102 166.252 36.894 164.068 38.182C161.884 39.442 159.434 40.072 156.718 40.072ZM156.718 38.392C159.042 38.392 161.142 37.846 163.018 36.754C164.894 35.662 166.364 34.108 167.428 32.092C168.52 30.076 169.066 27.724 169.066 25.036C169.066 22.32 168.52 19.954 167.428 17.938C166.364 15.922 164.894 14.368 163.018 13.276C161.142 12.184 159.042 11.638 156.718 11.638C154.394 11.638 152.294 12.184 150.418 13.276C148.542 14.368 147.058 15.922 145.966 17.938C144.874 19.954 144.328 22.32 144.328 25.036C144.328 27.724 144.874 30.076 145.966 32.092C147.058 34.108 148.542 35.662 150.418 36.754C152.294 37.846 154.394 38.392 156.718 38.392Z" fill="url(#paint0_linear_106_438)"/>
<path d="M183.044 16.468C185.76 16.468 187.972 17.308 189.68 18.988C191.388 20.64 192.242 23.104 192.242 26.38V39.736H190.394V26.506C190.394 23.79 189.708 21.718 188.336 20.29C186.964 18.834 185.102 18.106 182.75 18.106C180.286 18.106 178.312 18.89 176.828 20.458C175.372 22.026 174.644 24.35 174.644 27.43V39.736H172.754V16.93H174.644V21.76C175.288 20.052 176.352 18.75 177.836 17.854C179.348 16.93 181.084 16.468 183.044 16.468Z" fill="url(#paint1_linear_106_438)"/>
<path d="M54.396 25.036C54.396 22.124 55.026 19.534 56.286 17.266C57.546 14.97 59.296 13.192 61.536 11.932C63.804 10.644 66.366 10 69.222 10C72.722 10 75.718 10.924 78.21 12.772C80.702 14.62 82.368 17.14 83.208 20.332H75.312C74.724 19.1 73.884 18.162 72.792 17.518C71.728 16.874 70.51 16.552 69.138 16.552C66.926 16.552 65.134 17.322 63.762 18.862C62.39 20.402 61.704 22.46 61.704 25.036C61.704 27.612 62.39 29.67 63.762 31.21C65.134 32.75 66.926 33.52 69.138 33.52C70.51 33.52 71.728 33.198 72.792 32.554C73.884 31.91 74.724 30.972 75.312 29.74H83.208C82.368 32.932 80.702 35.452 78.21 37.3C75.718 39.12 72.722 40.03 69.222 40.03C66.366 40.03 63.804 39.4 61.536 38.14C59.296 36.852 57.546 35.074 56.286 32.806C55.026 30.538 54.396 27.948 54.396 25.036Z" fill="url(#paint2_linear_106_438)"/>
<defs>
<linearGradient id="paint0_linear_106_438" x1="117.072" y1="0" x2="117.072" y2="54" gradientUnits="userSpaceOnUse">
<stop stop-color="#FFE600"/>
<stop offset="1" stop-color="#FF7A00"/>
</linearGradient>
<linearGradient id="paint1_linear_106_438" x1="117.072" y1="0" x2="117.072" y2="54" gradientUnits="userSpaceOnUse">
<stop stop-color="#FFE600"/>
<stop offset="1" stop-color="#FF7A00"/>
</linearGradient>
<linearGradient id="paint2_linear_106_438" x1="69.01" y1="-0.18" x2="69.01" y2="49.82" gradientUnits="userSpaceOnUse">
<stop stop-color="#FFE600"/>
<stop offset="1" stop-color="#FF7A00"/>
</linearGradient>
</defs>
</svg>
